<svg width="114" height="45" viewBox="0 0 114 45" fill="none" xmlns="http://www.w3.org/2000/svg">
<path d="M0.55 36V0.749998H8.3V29.45H24.6V36H0.55ZM104.637 32.5C104.637 30.9667 105.054 29.9 105.887 29.3C106.72 28.6667 107.737 28.35 108.937 28.35C110.104 28.35 111.104 28.6667 111.937 29.3C112.77 29.9 113.187 30.9667 113.187 32.5C113.187 33.9667 112.77 35.0333 111.937 35.7C111.104 36.3333 110.104 36.65 108.937 36.65C107.737 36.65 106.72 36.3333 105.887 35.7C105.054 35.0333 104.637 33.9667 104.637 32.5Z" fill="#B384F9"/>
<path d="M30.4621 34.176H38.4941V36H28.2221V13.632H30.4621V34.176ZM49.3389 36.256C47.6962 36.256 46.2135 35.8933 44.8909 35.168C43.5895 34.4213 42.5549 33.376 41.7869 32.032C41.0402 30.6667 40.6669 29.0773 40.6669 27.264C40.6669 25.4507 41.0509 23.872 41.8189 22.528C42.5869 21.1627 43.6322 20.1173 44.9549 19.392C46.2775 18.6453 47.7602 18.272 49.4029 18.272C51.0455 18.272 52.5282 18.6453 53.8509 19.392C55.1949 20.1173 56.2402 21.1627 56.9869 22.528C57.7549 23.872 58.1389 25.4507 58.1389 27.264C58.1389 29.056 57.7549 30.6347 56.9869 32C56.2189 33.3653 55.1629 34.4213 53.8189 35.168C52.4749 35.8933 50.9815 36.256 49.3389 36.256ZM49.3389 34.304C50.4909 34.304 51.5575 34.048 52.5389 33.536C53.5202 33.0027 54.3095 32.2133 54.9069 31.168C55.5255 30.1013 55.8349 28.8 55.8349 27.264C55.8349 25.728 55.5362 24.4373 54.9389 23.392C54.3415 22.3253 53.5522 21.536 52.5709 21.024C51.5895 20.4907 50.5229 20.224 49.3709 20.224C48.2189 20.224 47.1522 20.4907 46.1709 21.024C45.1895 21.536 44.4002 22.3253 43.8029 23.392C43.2269 24.4373 42.9389 25.728 42.9389 27.264C42.9389 28.8 43.2269 30.1013 43.8029 31.168C44.4002 32.2133 45.1789 33.0027 46.1389 33.536C47.1202 34.048 48.1869 34.304 49.3389 34.304ZM69.5501 18.272C71.1928 18.272 72.6221 18.656 73.8381 19.424C75.0541 20.192 75.9288 21.1627 76.4621 22.336V18.528H78.7021V36.448C78.7021 38.048 78.3501 39.4667 77.6461 40.704C76.9634 41.9413 76.0034 42.8907 74.7661 43.552C73.5288 44.2347 72.1208 44.576 70.5421 44.576C68.3021 44.576 66.4354 44.0427 64.9421 42.976C63.4701 41.9093 62.5528 40.4587 62.1901 38.624H64.3981C64.7821 39.84 65.5074 40.8107 66.5741 41.536C67.6621 42.2613 68.9848 42.624 70.5421 42.624C71.6728 42.624 72.6861 42.3787 73.5821 41.888C74.4781 41.4187 75.1821 40.7147 75.6941 39.776C76.2061 38.8373 76.4621 37.728 76.4621 36.448V32.128C75.9074 33.3227 75.0221 34.3147 73.8061 35.104C72.6114 35.872 71.1928 36.256 69.5501 36.256C67.9501 36.256 66.5101 35.8827 65.2301 35.136C63.9714 34.3893 62.9794 33.3333 62.2541 31.968C61.5501 30.6027 61.1981 29.024 61.1981 27.232C61.1981 25.44 61.5501 23.872 62.2541 22.528C62.9794 21.1627 63.9714 20.1173 65.2301 19.392C66.5101 18.6453 67.9501 18.272 69.5501 18.272ZM76.4621 27.264C76.4621 25.856 76.1741 24.6187 75.5981 23.552C75.0221 22.4853 74.2328 21.664 73.2301 21.088C72.2488 20.512 71.1608 20.224 69.9661 20.224C68.7288 20.224 67.6194 20.5013 66.6381 21.056C65.6568 21.6107 64.8781 22.4213 64.3021 23.488C63.7474 24.5333 63.4701 25.7813 63.4701 27.232C63.4701 28.6613 63.7474 29.92 64.3021 31.008C64.8781 32.0747 65.6568 32.896 66.6381 33.472C67.6194 34.0267 68.7288 34.304 69.9661 34.304C71.1608 34.304 72.2488 34.016 73.2301 33.44C74.2328 32.864 75.0221 32.0427 75.5981 30.976C76.1741 29.9093 76.4621 28.672 76.4621 27.264ZM91.4639 36.256C89.8212 36.256 88.3385 35.8933 87.0159 35.168C85.7145 34.4213 84.6799 33.376 83.9119 32.032C83.1652 30.6667 82.7919 29.0773 82.7919 27.264C82.7919 25.4507 83.1759 23.872 83.9439 22.528C84.7119 21.1627 85.7572 20.1173 87.0799 19.392C88.4025 18.6453 89.8852 18.272 91.5279 18.272C93.1705 18.272 94.6532 18.6453 95.9759 19.392C97.3199 20.1173 98.3652 21.1627 99.1119 22.528C99.8799 23.872 100.264 25.4507 100.264 27.264C100.264 29.056 99.8799 30.6347 99.1119 32C98.3439 33.3653 97.2879 34.4213 95.9439 35.168C94.5999 35.8933 93.1065 36.256 91.4639 36.256ZM91.4639 34.304C92.6159 34.304 93.6825 34.048 94.6639 33.536C95.6452 33.0027 96.4345 32.2133 97.0319 31.168C97.6505 30.1013 97.9599 28.8 97.9599 27.264C97.9599 25.728 97.6612 24.4373 97.0639 23.392C96.4665 22.3253 95.6772 21.536 94.6959 21.024C93.7145 20.4907 92.6479 20.224 91.4959 20.224C90.3439 20.224 89.2772 20.4907 88.2959 21.024C87.3145 21.536 86.5252 22.3253 85.9279 23.392C85.3519 24.4373 85.0639 25.728 85.0639 27.264C85.0639 28.8 85.3519 30.1013 85.9279 31.168C86.5252 32.2133 87.3039 33.0027 88.2639 33.536C89.2452 34.048 90.3119 34.304 91.4639 34.304Z" fill="white"/>
</svg>
