<?xml version="1.0" standalone="no"?>
<!DOCTYPE svg PUBLIC "-//W3C//DTD SVG 20010904//EN"
 "http://www.w3.org/TR/2001/REC-SVG-20010904/DTD/svg10.dtd">
<svg version="1.0" xmlns="http://www.w3.org/2000/svg"
 width="383.000000pt" height="217.000000pt" viewBox="0 0 383.000000 217.000000"
 preserveAspectRatio="xMidYMid meet">

<g transform="translate(0.000000,217.000000) scale(0.100000,-0.100000)"
fill="#000000" stroke="none">
<path d="M0 1085 l0 -1085 1915 0 1915 0 0 1085 0 1085 -1915 0 -1915 0 0
-1085z m450 215 l0 -430 245 0 245 0 0 -95 0 -95 -360 0 -360 0 0 525 0 525
115 0 115 0 0 -430z m670 -260 l0 -310 120 0 120 0 0 -30 0 -30 -155 0 -155 0
0 340 0 340 35 0 35 0 0 -310z m700 134 c92 -50 136 -139 128 -258 -6 -85 -31
-140 -88 -188 -113 -97 -307 -75 -387 45 -102 152 -37 370 127 422 68 22 157
14 220 -21z m547 24 c30 -7 61 -25 89 -53 l44 -42 0 49 0 48 35 0 35 0 0 -294
c0 -326 -4 -353 -63 -415 -114 -120 -354 -90 -418 53 -21 47 -18 56 21 56 19
0 31 -6 35 -19 10 -32 81 -89 120 -97 55 -10 133 1 163 23 48 35 72 97 72 187
l0 80 -29 -31 c-93 -102 -269 -101 -360 2 -50 58 -65 99 -65 190 -1 68 3 88
27 138 55 111 164 158 294 125z m710 -16 c82 -43 133 -121 141 -217 13 -169
-98 -297 -258 -297 -86 0 -139 20 -192 73 -134 134 -88 380 85 449 64 25 166
21 224 -8z m473 -297 c39 -20 50 -43 50 -105 0 -62 -11 -85 -52 -106 -41 -21
-129 -15 -158 11 -55 49 -47 159 13 195 39 24 106 26 147 5z"/>
<path d="M1630 1138 c-86 -25 -130 -92 -130 -201 0 -77 11 -111 48 -151 56
-60 153 -74 232 -33 112 56 135 245 41 338 -52 53 -117 68 -191 47z"/>
<path d="M2237 1136 c-48 -18 -74 -41 -98 -88 -47 -92 -29 -208 40 -271 44
-40 88 -52 157 -44 62 7 110 42 141 105 22 45 25 62 21 117 -3 37 -14 78 -25
97 -45 76 -153 115 -236 84z"/>
<path d="M2885 1135 c-148 -52 -166 -305 -27 -383 44 -24 121 -30 169 -11 34
12 80 55 98 89 41 79 25 200 -34 259 -57 57 -129 73 -206 46z"/>
</g>
</svg>
