<svg width="481" height="288" viewBox="0 0 481 288" fill="none" xmlns="http://www.w3.org/2000/svg">
<path fill-rule="evenodd" clip-rule="evenodd" d="M8.58001 215.659C8.58055 216.157 8.48293 216.651 8.29273 217.112C8.10253 217.572 7.82347 217.991 7.47149 218.344C7.11951 218.697 6.7015 218.977 6.24132 219.168C5.78114 219.359 5.28781 219.458 4.7895 219.458C4.29115 219.458 3.79778 219.359 3.3376 219.168C2.87741 218.976 2.45942 218.696 2.10751 218.343C1.75559 217.99 1.47665 217.572 1.28662 217.111C1.09659 216.65 0.9992 216.156 1 215.658C0.998921 214.652 1.39742 213.687 2.10787 212.974C2.81832 212.262 3.78254 211.861 4.78848 211.86C5.28688 211.86 5.78032 211.959 6.24061 212.15C6.70091 212.341 7.11904 212.621 7.47113 212.974C7.82322 213.327 8.10237 213.745 8.29263 214.206C8.4829 214.667 8.58055 215.161 8.58001 215.659Z" stroke="#B384F9" stroke-width="2" stroke-linecap="round" stroke-linejoin="round"/>
<path d="M375.252 9.17021V1" stroke="#B384F9" stroke-width="2" stroke-linecap="round" stroke-linejoin="round"/>
<path d="M379.847 5.5957H371.678" stroke="#B384F9" stroke-width="2" stroke-linecap="round" stroke-linejoin="round"/>
<path fill-rule="evenodd" clip-rule="evenodd" d="M414.121 167.286C414.122 168.292 413.723 169.258 413.012 169.97C412.302 170.682 411.337 171.083 410.331 171.084C409.833 171.083 409.339 170.985 408.879 170.793C408.419 170.602 408.002 170.322 407.65 169.969C407.298 169.616 407.019 169.198 406.829 168.737C406.639 168.277 406.542 167.783 406.542 167.285C406.541 166.279 406.94 165.314 407.65 164.602C408.361 163.89 409.325 163.489 410.331 163.488C411.337 163.489 412.302 163.89 413.012 164.602C413.723 165.314 414.122 166.28 414.121 167.286Z" stroke="#B384F9" stroke-width="2" stroke-linecap="round" stroke-linejoin="round"/>
<path d="M226.249 286.368H188.906" stroke="#B384F9" stroke-width="2" stroke-linecap="round" stroke-linejoin="round"/>
<path d="M180.119 286.368H172.98" stroke="#B384F9" stroke-width="2" stroke-linecap="round" stroke-linejoin="round"/>
<path d="M259.645 187.866C259.645 174.657 270.331 163.95 283.512 163.95C296.695 163.95 307.38 174.657 307.38 187.866C307.38 196.371 302.949 203.839 296.274 208.079" stroke="#B384F9" stroke-width="2" stroke-linecap="round" stroke-linejoin="round"/>
<path d="M300.287 170.986C309.684 180.401 309.684 195.667 300.287 205.082C292.77 212.615 280.582 212.615 273.066 205.082C267.051 199.056 267.051 189.287 273.066 183.261C277.875 178.441 285.677 178.441 290.487 183.261C294.336 187.116 294.336 193.37 290.487 197.226" stroke="#B384F9" stroke-width="2" stroke-linecap="round" stroke-linejoin="round"/>
<path d="M322.235 198.711C324.762 197.471 327.54 196.828 330.355 196.832C340.57 196.832 348.849 205.129 348.849 215.364C348.849 225.598 340.57 233.895 330.355 233.895C323.929 233.895 318.269 230.611 314.955 225.626" stroke="#B384F9" stroke-width="2" stroke-linecap="round" stroke-linejoin="round"/>
<path d="M307.606 187.597C308.679 187.275 309.794 187.112 310.914 187.113C317.246 187.113 322.377 192.256 322.377 198.602" stroke="#B384F9" stroke-width="2" stroke-linecap="round" stroke-linejoin="round"/>
<path d="M343.186 228.615C336.039 235.775 324.451 235.775 317.304 228.615C311.587 222.885 311.587 213.597 317.304 207.868C321.879 203.283 329.295 203.283 333.869 207.868C337.529 211.534 337.529 217.48 333.869 221.146" stroke="#B384F9" stroke-width="2" stroke-linecap="round" stroke-linejoin="round"/>
<path d="M314.637 225.314C310.203 234.54 300.785 240.908 289.881 240.908C280.244 240.908 271.767 235.934 266.866 228.407" stroke="#B384F9" stroke-width="2" stroke-linecap="round" stroke-linejoin="round"/>
<path d="M266.497 228.42C262.94 234.561 256.305 238.692 248.708 238.692C240.512 238.692 233.438 233.885 230.136 226.933" stroke="#B384F9" stroke-width="2" stroke-linecap="round" stroke-linejoin="round"/>
<path d="M263.215 232.57C255.123 240.679 242.003 240.679 233.91 232.57C227.436 226.084 227.436 215.566 233.91 209.081C239.09 203.891 247.487 203.891 252.666 209.081C256.81 213.233 256.81 219.963 252.666 224.114C251.879 224.904 250.943 225.531 249.913 225.958C248.883 226.386 247.779 226.606 246.664 226.606C245.549 226.606 244.445 226.386 243.415 225.958C242.385 225.531 241.45 224.904 240.662 224.114C239.389 222.837 238.673 221.107 238.673 219.304C238.673 217.5 239.389 215.77 240.662 214.493" stroke="#B384F9" stroke-width="2" stroke-linecap="round" stroke-linejoin="round"/>
<path d="M226.667 196.947C230.517 189.472 238.299 184.362 247.272 184.362C251.562 184.355 255.769 185.547 259.418 187.803" stroke="#B384F9" stroke-width="2" stroke-linecap="round" stroke-linejoin="round"/>
<path d="M389.58 138.739C389.604 139.603 389.616 140.471 389.616 141.341C389.616 173.296 373.39 201.452 348.744 217.991" stroke="#B384F9" stroke-width="2" stroke-linecap="round" stroke-linejoin="round"/>
<path d="M234.36 207.104C216.657 190.302 205.614 166.524 205.614 140.164C205.614 89.2503 246.804 47.9785 297.614 47.9785C318.129 47.9785 337.077 54.7087 352.378 66.0827" stroke="#B384F9" stroke-width="2" stroke-linecap="round" stroke-linejoin="round"/>
<path d="M413.018 66.0581H430.991C437.493 66.0581 442.767 71.3391 442.767 77.8569C442.767 84.3727 437.493 89.6537 430.991 89.6537H413.018C406.518 89.6537 401.245 94.9378 401.245 101.452C401.245 107.968 406.518 113.251 413.018 113.251H468.147C474.648 113.251 479.92 118.534 479.92 125.049C479.92 131.565 474.648 136.849 468.147 136.849H363.674C357.172 136.849 351.9 131.565 351.9 125.049C351.9 118.533 357.172 113.251 363.674 113.251" stroke="#C498FC" stroke-width="2" stroke-linecap="round" stroke-linejoin="round"/>
<path d="M374.829 113.251C381.332 113.251 386.605 107.971 386.605 101.453C386.605 94.9368 381.332 89.6547 374.829 89.6547H335.168C328.663 89.6547 323.392 84.3727 323.392 77.8559C323.392 71.3402 328.664 66.0571 335.168 66.0571H389.264" stroke="#C498FC" stroke-width="2" stroke-linecap="round" stroke-linejoin="round"/>
<path d="M399.647 62.6094L392.868 69.1701" stroke="#C498FC" stroke-width="2" stroke-linecap="round" stroke-linejoin="round"/>
<path d="M409.164 62.6094L402.385 69.1701" stroke="#C498FC" stroke-width="2" stroke-linecap="round" stroke-linejoin="round"/>
<path d="M163.027 214.797H182.552C189.068 214.797 194.351 209.504 194.351 202.975C194.351 196.446 189.068 191.153 182.552 191.153H163.057C156.541 191.153 151.258 185.86 151.258 179.331V178.917C151.258 172.388 156.541 167.096 163.057 167.096H209.782" stroke="#C498FC" stroke-width="2" stroke-linecap="round" stroke-linejoin="round"/>
<path d="M89.2429 214.797H138.32" stroke="#C498FC" stroke-width="2" stroke-linecap="round" stroke-linejoin="round"/>
<path d="M248.497 238.728H138.359" stroke="#C498FC" stroke-width="2" stroke-linecap="round" stroke-linejoin="round"/>
<path d="M89.2428 214.797C82.6482 214.797 77.2545 220.153 77.2545 226.762C77.2545 233.372 82.6482 238.727 89.2428 238.727H108.036" stroke="#C498FC" stroke-width="2" stroke-linecap="round" stroke-linejoin="round"/>
<path d="M121.33 235.744L114.552 242.308" stroke="#C498FC" stroke-width="2" stroke-linecap="round" stroke-linejoin="round"/>
<path d="M130.847 235.744L124.068 242.308" stroke="#C498FC" stroke-width="2" stroke-linecap="round" stroke-linejoin="round"/>
<path d="M150.1 220.046V210.142" stroke="#C498FC" stroke-width="2" stroke-linecap="round" stroke-linejoin="round"/>
<path d="M155.042 215.095L145.148 215.097" stroke="#C498FC" stroke-width="2" stroke-linecap="round" stroke-linejoin="round"/>
</svg>
