<svg width="353" height="125" viewBox="0 0 353 125" fill="none" xmlns="http://www.w3.org/2000/svg">
<path fill-rule="evenodd" clip-rule="evenodd" d="M192.158 108.605H140.938C123.966 108.605 110.206 91.8251 110.206 71.1289C110.206 50.4326 123.966 33.6523 140.938 33.6523H192.158C209.13 33.6523 222.89 50.4326 222.89 71.1289C222.89 91.8251 209.13 108.605 192.158 108.605Z" fill="#F9F7FC"/>
<path fill-rule="evenodd" clip-rule="evenodd" d="M278.058 31.6022L276.286 37.5159C276.224 37.7247 276.125 37.9143 275.998 38.0716C275.87 38.229 275.716 38.3504 275.547 38.4276L270.76 40.615C269.672 41.1136 269.672 43.015 270.76 43.5137L275.547 45.7011C275.89 45.8586 276.16 46.1905 276.286 46.6127L278.057 52.5279C278.462 53.874 280.001 53.874 280.404 52.5279L282.176 46.6127C282.302 46.1921 282.572 45.8586 282.915 45.7026L287.702 43.5137C288.791 43.015 288.791 41.1136 287.702 40.6165L282.915 38.4276C282.746 38.3506 282.592 38.2292 282.464 38.0718C282.337 37.9145 282.238 37.7248 282.176 37.5159L280.405 31.6007C280 30.2561 278.461 30.2577 278.058 31.6022Z" stroke="#C194FC" stroke-width="2" stroke-linecap="round" stroke-linejoin="round"/>
<path fill-rule="evenodd" clip-rule="evenodd" d="M261.276 3.82413C261.276 4.83836 260.95 5.81104 260.369 6.5282C259.789 7.24537 259.001 7.64827 258.18 7.64827C257.359 7.64827 256.572 7.24537 255.991 6.5282C255.411 5.81104 255.085 4.83836 255.085 3.82413C255.085 2.80991 255.411 1.83723 255.991 1.12006C256.572 0.402899 257.359 0 258.18 0C259.001 0 259.789 0.402899 260.369 1.12006C260.95 1.83723 261.276 2.80991 261.276 3.82413Z" fill="#C69AFD"/>
<path fill-rule="evenodd" clip-rule="evenodd" d="M32.652 109.278L31.4707 113.222C31.4286 113.361 31.3629 113.487 31.2778 113.592C31.1928 113.697 31.0905 113.778 30.9779 113.829L27.7856 115.29C27.0612 115.62 27.0612 116.889 27.7856 117.219L30.9779 118.678C31.2057 118.784 31.3865 119.006 31.4707 119.289L32.652 123.23C32.7112 123.428 32.8178 123.598 32.9575 123.718C33.0971 123.838 33.2632 123.902 33.4334 123.902C33.6035 123.902 33.7696 123.838 33.9093 123.718C34.049 123.598 34.1556 123.428 34.2147 123.23L35.396 119.289C35.4374 119.149 35.5029 119.022 35.588 118.916C35.6731 118.811 35.7758 118.73 35.8889 118.678L39.0812 117.219C39.8055 116.889 39.8055 115.62 39.0812 115.29L35.8889 113.829C35.7762 113.778 35.6738 113.697 35.5888 113.592C35.5037 113.487 35.438 113.361 35.396 113.222L34.2147 109.277C34.1556 109.08 34.049 108.91 33.9093 108.79C33.7696 108.67 33.6035 108.605 33.4334 108.605C33.2632 108.605 33.0971 108.67 32.9575 108.79C32.8178 108.91 32.7112 109.081 32.652 109.278Z" stroke="#C194FC" stroke-width="2" stroke-linecap="round" stroke-linejoin="round"/>
<path fill-rule="evenodd" clip-rule="evenodd" d="M234.034 71.8935C234.034 75.139 232.99 78.2516 231.133 80.5465C229.275 82.8414 226.755 84.1307 224.128 84.1307C221.501 84.1307 218.981 82.8414 217.123 80.5465C215.265 78.2516 214.222 75.139 214.222 71.8935C214.222 68.648 215.265 65.5354 217.123 63.2405C218.981 60.9455 221.501 59.6563 224.128 59.6563C226.755 59.6563 229.275 60.9455 231.133 63.2405C232.99 65.5354 234.034 68.648 234.034 71.8935Z" stroke="#C194FC" stroke-width="2" stroke-linecap="round" stroke-linejoin="round"/>
<path d="M55.7224 71.1289H81.7261" stroke="#C194FC" stroke-width="2" stroke-linecap="round"/>
<path fill-rule="evenodd" clip-rule="evenodd" d="M79.2496 52.7731C79.2496 53.0745 79.2014 53.3729 79.108 53.6514C79.0145 53.9298 78.8776 54.1828 78.705 54.3958C78.5324 54.6089 78.3275 54.7779 78.1021 54.8931C77.8766 55.0084 77.635 55.0676 77.391 55.0675C77.147 55.0674 76.9054 55.008 76.68 54.8925C76.4546 54.7771 76.2498 54.6079 76.0773 54.3947C75.9049 54.1815 75.7681 53.9284 75.6748 53.6499C75.5815 53.3714 75.5335 53.0729 75.5336 52.7715C75.5337 52.1628 75.7296 51.5791 76.0782 51.1488C76.4268 50.7185 76.8994 50.4768 77.3922 50.4771C77.885 50.4773 78.3575 50.7193 78.7059 51.1499C79.0542 51.5804 79.2498 52.1643 79.2496 52.7731Z" fill="#C69AFD"/>
<path fill-rule="evenodd" clip-rule="evenodd" d="M6.19138 95.6034C6.19138 96.6177 5.86522 97.5903 5.28467 98.3075C4.70412 99.0247 3.91672 99.4276 3.09569 99.4276C2.27466 99.4276 1.48726 99.0247 0.906706 98.3075C0.326152 97.5903 0 96.6177 0 95.6034C0 94.5892 0.326152 93.6165 0.906706 92.8994C1.48726 92.1822 2.27466 91.7793 3.09569 91.7793C3.91672 91.7793 4.70412 92.1822 5.28467 92.8994C5.86522 93.6165 6.19138 94.5892 6.19138 95.6034Z" fill="#C69AFD"/>
<path d="M191.313 113.194V102.487" stroke="#C194FC" stroke-width="2" stroke-linecap="round" stroke-linejoin="round"/>
<path d="M195.647 107.839L186.979 107.842" stroke="#C194FC" stroke-width="2" stroke-linecap="round" stroke-linejoin="round"/>
<path d="M132.495 52.7729H85.441" stroke="#C194FC" stroke-width="2" stroke-linecap="round" stroke-linejoin="round"/>
<path d="M351.67 109.37H339.287" stroke="#C194FC" stroke-width="2" stroke-linecap="round" stroke-linejoin="round"/>
<path d="M321.952 109.37H278.612" stroke="#C194FC" stroke-width="2" stroke-linecap="round" stroke-linejoin="round"/>
</svg>
